# xmcd
#
# Track frame offsets: 
#        150
#        10065
#        24502
#        42861
#        59145
#        76585
#        93400
#        103063
#        110563
#        126945
#        147351
#        166092
#        183990
#
# Disc length: 2666 seconds
#
# Revision: 1
# Processed by: cddbd v1.5.2PL0 Copyright (c) Steve Scherf et al.
# Submitted via: ExactAudioCopyFreeDBPlugin 1.0
#
DISCID=a50a680d
DTITLE=Ritarikunta - Ritarikunta-Albumi
DYEAR=2010
DGENRE=Rap
TTITLE0=Intro
TTITLE1=Klassist!
TTITLE2=Albumi
TTITLE3=Hallussapito (feat. Huge L)
TTITLE4=Horjuntavoitto
TTITLE5=Hyvän Tahdon Pelejä
TTITLE6=Suomiseiskat
TTITLE7=Vanha Kunnon Meininki
TTITLE8=Penkki Takakenos
TTITLE9=Tupenrapinat (feat. Hot'n'Totti)
TTITLE10=Yö On Täynnä
TTITLE11=Rakkauden Sotilas
TTITLE12=Takaisin Kotiin (feat. Hot'n'Totti)
EXTD=
EXTT0=
EXTT1=
EXTT2=
EXTT3=
EXTT4=
EXTT5=
EXTT6=
EXTT7=
EXTT8=
EXTT9=
EXTT10=
EXTT11=
EXTT12=
PLAYORDER=
